<?xml version="1.0" encoding="utf-8"?>
<!-- Generator: Adobe Illustrator 18.0.0, SVG Export Plug-In . SVG Version: 6.00 Build 0)  -->
<!DOCTYPE svg PUBLIC "-//W3C//DTD SVG 1.1//EN" "http://www.w3.org/Graphics/SVG/1.1/DTD/svg11.dtd">
<svg version="1.1" id="Layer_1" xmlns="http://www.w3.org/2000/svg" xmlns:xlink="http://www.w3.org/1999/xlink" x="0px" y="0px"
	 viewBox="0 0 126 120" enable-background="new 0 0 126 120" xml:space="preserve">
<g>
	<path fill="#010101" d="M82.6-0.5c0.2,0.1,0.3,0.1,0.5,0.1c2.4,0.1,4.8,0.1,7.2,0.1C94,0,97.7,0.1,101.4,0.3
		c3.9,0.2,7.9,0.5,11.8,0.9c2.3,0.2,4.5,0.7,6.7,1.1c0.4,0.1,0.8,0.3,1.2,0.5c0.2,0.1,0.4,0.4,0.6,0.7c0.6-0.1,0.9,0,1.3,0.8
		c0.4,1,0.8,2,1,3.1c0.7,3.2,1.1,6.4,1,9.7c-0.1,15.6,0,31.1-0.1,46.7c0,3.6-0.6,7.2-2,10.6c-0.2,0.5-0.6,0.9-1,1.5
		c0.3,0.4-0.1,1-0.4,1.4c-1.1,1.3-2.2,2.6-3.5,3.8C109,89.4,99,96.7,89,103.7c-5.6,3.9-11.3,7.8-17.3,11.2c-1.6,0.9-3.4,1.7-5,2.5
		c-0.4,0.2-0.9,0.3-1.3,0.4c-0.3,0.1-0.7-0.1-1-0.1c-0.5,0-1,0.2-1.4,0c-1.9-0.8-3.8-1.5-5.6-2.4c-7.2-3.8-13.9-8.3-20.6-12.9
		c-7-4.8-13.8-9.6-20.4-14.9c-3.2-2.5-6.1-5.2-9.2-7.9c-0.7-0.6-1.2-1.4-1.8-2.2C5,77,4.8,76.6,5.1,76.1c-0.7-0.2-1.1-0.8-1.2-1.4
		c-0.5-2-1.1-4-1.4-6C1.7,64,1.3,59.3,1.1,54.5c-0.1-3.1-0.2-6.1-0.3-9.2c0-0.1-0.1-0.2-0.1-0.4c0-0.8,0-1.7,0-2.5
		c0-0.1,0.1-0.3,0.1-0.4c0-3,0-6,0-9c0-0.1-0.1-0.3-0.1-0.4c0-0.8,0-1.7,0-2.5c0.1-0.1,0.1-0.3,0.1-0.4c0.1-3.6,0.1-7.1,0.4-10.6
		C1.5,15.5,1.9,12,2.4,8.5c0.2-1.4,0.8-2.7,1.2-4C3.8,4,4.2,3.6,4.7,3.8C5,3.6,5.2,3.2,5.5,3.1c0.6-0.3,1.2-0.5,1.9-0.6
		c4.3-1,8.8-1.3,13.2-1.6c3-0.2,6.1-0.4,9.2-0.6c4-0.2,7.9-0.3,11.9-0.5c2.5-0.1,5-0.1,7.6-0.1c0.1,0,0.2-0.1,0.3-0.1
		c0.9,0,1.8,0,2.6,0c0.1,0,0.3,0.1,0.4,0.1c1.1,0,2.1,0,3.2,0c0.2,0,0.3-0.1,0.5-0.1c6.6,0,13.2,0,19.7,0c0.2,0,0.4,0.1,0.6,0.1
		c0.9,0,1.8,0,2.7,0c0.2,0,0.4-0.1,0.6-0.1C80.9-0.5,81.7-0.5,82.6-0.5z M9.5,71.9c0.1,0.2,0.1,0.6,0.3,0.9c0.4,0.6,0.9,1.2,1.4,1.7
		c3.4,3.4,7.3,6.4,11.2,9.4c7.9,6,16,11.7,24.4,17.1c4.3,2.8,8.6,5.5,13.2,7.8c0.3,0.1,0.6,0.3,0.9,0.4c1,0.3,2,1.2,3.2,0.6
		c1.2,0.6,2.3-0.2,3.3-0.7c1.9-0.9,3.8-2,5.7-3.1c7.4-4.4,14.4-9.3,21.3-14.4c6.5-4.7,12.9-9.6,18.9-14.9c1.4-1.2,2.6-2.7,3.8-4.1
		c0.3-0.3,0.3-0.8,0.5-1.3c0.2-0.3,0.6-0.6,0.8-1c0.3-0.6,0.6-1.2,0.7-1.8c0.5-2.4,1-4.8,1.2-7.2c0.4-3.8,0.6-7.6,0.8-11.4
		c0.1-4.6,0.2-9.3,0.1-13.9c0-3.5-0.2-6.9-0.4-10.4c-0.2-3.8-0.5-7.5-1.3-11.2c-0.2-1.2-0.7-2.3-1.1-3.4c-0.2-0.5-0.6-0.9-1.2-0.6
		c-0.1-0.6-0.6-0.8-1-0.9c-1.9-0.4-3.9-0.9-5.9-1.1C104.5,8.1,98.8,7.8,93,7.4c-2.7-0.1-5.3-0.2-8-0.3C80.5,7.1,76,7,71.4,7
		C66,7,60.6,7,55.1,7.1c-2.8,0-5.7,0.1-8.5,0.1c-2.8,0.1-5.6,0.1-8.5,0.2C34.3,7.6,30.5,7.7,26.7,8c-4.2,0.3-8.4,0.7-12.6,1.2
		c-1.2,0.1-2.4,0.4-3.5,0.8c-0.4,0.1-0.8,0.5-1.4,0.8c-0.3-0.1-0.7,0.1-0.9,0.6c-0.2,0.3-0.4,0.7-0.5,1c-0.8,2.3-1.2,4.6-1.4,7
		c-0.4,5.1-0.8,10.3-0.9,15.4c-0.1,4.9,0.1,9.8,0.2,14.7c0.1,4.9,0.5,9.8,1.2,14.7c0.3,2.1,0.6,4.2,1.5,6.1
		C8.6,70.7,9,71.2,9.5,71.9z"/>
	<path fill="#575757" d="M0.6,32.6c0,0.1,0.1,0.3,0.1,0.4c0,3,0,6,0,9c0,0.1-0.1,0.3-0.1,0.4C0.6,39.1,0.6,35.8,0.6,32.6z"/>
	<path fill="#555555" d="M56.4-0.5c-0.2,0-0.3,0.1-0.5,0.1c-1.1,0-2.1,0-3.2,0c-0.1,0-0.3-0.1-0.4-0.1C53.6-0.5,55-0.5,56.4-0.5z"/>
	<path fill="#555555" d="M80-0.5c-0.2,0-0.4,0.1-0.6,0.1c-0.9,0-1.8,0-2.7,0c-0.2,0-0.4-0.1-0.6-0.1C77.4-0.5,78.7-0.5,80-0.5z"/>
	<path fill="#FE8C00" d="M9.5,71.9c-0.4-0.7-0.8-1.1-1.1-1.7c-0.8-1.9-1.2-4.1-1.5-6.1c-0.7-4.9-1.1-9.8-1.2-14.7
		c-0.1-4.9-0.3-9.8-0.2-14.7c0.1-5.1,0.5-10.3,0.9-15.4c0.2-2.4,0.5-4.7,1.4-7c0.1-0.3,0.3-0.7,0.5-1c0.3-0.4,0.6-0.7,0.9-0.6
		c0.5-0.3,0.9-0.7,1.4-0.8c1.2-0.3,2.3-0.6,3.5-0.8c4.2-0.4,8.4-0.9,12.6-1.2c3.8-0.3,7.6-0.4,11.4-0.5c2.8-0.1,5.6-0.2,8.5-0.2
		c2.8-0.1,5.7-0.1,8.5-0.1C60.6,7,66,6.9,71.4,6.9c4.5,0,9,0.1,13.6,0.2c2.7,0.1,5.4,0.1,8,0.3c5.8,0.3,11.5,0.7,17.3,1.2
		c2,0.1,3.9,0.7,5.9,1.1c0.4,0.1,0.9,0.3,1,0.9c0.6-0.3,1,0.1,1.2,0.6c0.4,1.1,0.9,2.2,1.1,3.4c0.8,3.7,1.1,7.4,1.3,11.2
		c0.2,3.5,0.3,6.9,0.4,10.4c0,4.6,0,9.3-0.1,13.9c-0.1,3.8-0.4,7.6-0.8,11.4c-0.2,2.4-0.8,4.8-1.2,7.2c-0.1,0.6-0.4,1.2-0.7,1.8
		c-0.2,0.4-0.6,0.7-0.8,1c-0.2,0.5-0.2,1-0.5,1.3c-1.2,1.4-2.4,2.8-3.8,4.1c-6,5.4-12.4,10.2-18.9,14.9c-6.9,5.1-14,10-21.3,14.4
		c-1.9,1.1-3.7,2.1-5.7,3.1c-1,0.5-2,1.3-3.3,0.7c-1.2,0.6-2.1-0.3-3.2-0.6c-0.3-0.1-0.6-0.3-0.9-0.4c-4.6-2.3-8.9-5-13.2-7.8
		c-8.3-5.4-16.5-11.1-24.4-17.1c-3.9-3-7.7-5.9-11.2-9.4c-0.5-0.5-1-1.1-1.4-1.7C9.6,72.4,9.5,72,9.5,71.9z M67.8,35.1
		c0,3.9,0,7.6,0,11.4c3.6,0,7.2,0,10.9,0c0-9.2,0-18.3,0-27.5c-3.6,0-7.2,0-10.9,0c0,3.6,0,7,0,10.5c-2.9,0-5.7,0-8.6,0
		c0-3.6,0-7.1,0-10.5c-3.6,0-7.2,0-10.7,0c0,9.2,0,18.3,0,27.5c3.6,0,7.1,0,10.7,0c0-3.8,0-7.6,0-11.5C62.1,35.1,65,35.1,67.8,35.1z
		 M46.6,46.6c-0.2-0.3-0.3-0.5-0.3-0.7c-3.3-5.6-6.5-11.3-9.8-17c-0.2-0.3-0.3-0.6,0-0.9c2.6-2.6,5.2-5.3,7.8-8
		c0.3-0.3,0.6-0.6,0.9-1c-0.1,0-0.2,0-0.3,0c-3.4,0-6.7,0-10.1,0c-0.3,0-0.6,0.2-0.8,0.4c-2.5,3-5,6.1-7.6,9.1
		c-0.1,0.1-0.2,0.2-0.4,0.3c0-3.4,0-6.6,0-9.8c-3.6,0-7.2,0-10.7,0c0,9.2,0,18.3,0,27.5c3.6,0,7.2,0,10.8,0c0-0.3,0-0.5,0-0.7
		c0-2.2,0-4.4,0-6.7c0-0.2,0-0.5,0.2-0.7c0.9-0.9,1.9-1.8,2.8-2.7c0.1,0.3,0.3,0.6,0.5,1c1.5,3.1,3,6.1,4.4,9.2
		c0.2,0.5,0.5,0.7,1.1,0.7c3.3,0,6.5,0,9.8,0C45.4,46.6,45.9,46.6,46.6,46.6z M96.4,35.6c4.7,0,9.3,0,13.9,0c0-1.8,0-3.6,0-5.4
		c-4.6,0-9.3,0-13.9,0c0-1.9,0-3.8,0-5.7c5,0,10,0,15,0c0-1.9,0-3.7,0-5.5c-8.7,0-17.2,0-25.9,0c0,9.2,0,18.3,0,27.5
		c3.6,0,7.2,0,10.8,0C96.4,42.9,96.4,39.3,96.4,35.6z M37.7,67.1c0-1.8,0-3.6,0-5.5c0.1,0.1,0.2,0.2,0.2,0.3c1,1.6,1.9,3.2,2.8,4.9
		c0.1,0.2,0.3,0.4,0.4,0.4c1.2,0,2.5,0,3.7,0c0-3.3,0-6.6,0-9.8c-1.2,0-2.5,0-3.7,0c0,1.8,0,3.6,0,5.4c-0.1-0.1-0.1-0.1-0.2-0.2
		c-1-1.6-1.9-3.2-2.8-4.9c-0.1-0.2-0.3-0.4-0.5-0.4c-1.2,0-2.5,0-3.7,0c0,3.3,0,6.6,0,9.8C35.3,67.1,36.5,67.1,37.7,67.1z
		 M70.6,67.2c0-3.3,0-6.6,0-9.8c-1.2,0-2.4,0-3.6,0c0,1.8,0,3.6,0,5.4c-0.1-0.2-0.2-0.2-0.2-0.3c-0.8-1.3-1.6-2.5-2.2-3.9
		c-0.5-1-1.2-1.5-2.3-1.3c-0.8,0.1-1.6,0-2.4,0c0,3.3,0,6.6,0,9.8c1.2,0,2.4,0,3.7,0c0-1.8,0-3.6,0-5.5c1,1.8,2,3.4,3,5.1
		c0.1,0.2,0.3,0.4,0.5,0.4C68.2,67.2,69.4,67.2,70.6,67.2z M27.3,70.3c0,3.3,0,6.5,0,9.7c1.3,0,2.5,0,3.9,0c0-1.4,0-2.7,0-3.9
		c1,0,2,0,3,0c0,1.4,0,2.7,0,4c1.3,0,2.6,0,3.9,0c0-3.3,0-6.5,0-9.7c-1.3,0-2.6,0-3.9,0c0,1.2,0,2.5,0,3.7c-1,0-2,0-3,0
		c0-1.2,0-2.5,0-3.7C29.8,70.3,28.6,70.3,27.3,70.3z M62.4,80.1c-0.3-0.8-0.6-1.6-0.8-2.3c-0.4-1.3-1.1-2.2-2.5-2.5c0,0,0-0.1,0,0
		c0.8-0.4,1.6-0.6,2.3-1.1c1.2-0.8,1.1-2.3-0.1-3.1c-0.7-0.4-1.6-0.7-2.3-0.7c-2.3-0.1-4.7-0.1-7-0.1c0,0-0.1,0.1-0.1,0.1
		c0,3.2,0,6.5,0,9.7c1.3,0,2.5,0,3.8,0c0-0.7,0-1.3,0-2c0-0.6,0-1.3,0-1.9c1.3-0.1,1.8,0.2,2.1,1.3c0.2,0.7,0.3,1.5,0.5,2.2
		c0,0.1,0.3,0.3,0.4,0.3C59.8,80.1,61.1,80.1,62.4,80.1z M68.7,70.1c-1.1,0-2.2,0.3-3.3,0.8c-3,1.6-3.3,6-0.6,8
		c2.4,1.7,6.3,1.7,8.7-0.2c2.4-1.9,2.2-5.8-0.3-7.5C72,70.4,70.5,70.2,68.7,70.1z M77,80c3.2,0,6.3,0,9.4,0c0-0.7,0-1.3,0-2
		c-1.9,0-3.6,0-5.4,0c0-0.7,0-1.4,0-2.1c1.7,0,3.4,0,5.1,0c0-0.7,0-1.2,0-1.9c-1.7,0-3.4,0-5.1,0c0-0.6,0-1.2,0-1.8
		c1.9,0,3.6,0,5.4,0c0-0.7,0-1.3,0-1.9c-3.2,0-6.3,0-9.4,0C77,73.6,77,76.8,77,80z M101,67.2c0-0.1,0-0.2,0-0.2
		c-1.4-3.1-2.8-6.3-4.2-9.4c-0.1-0.1-0.3-0.3-0.5-0.3c-1,0-2,0-3,0c-0.4,0-0.6,0.1-0.8,0.5c-0.8,1.9-1.7,3.9-2.5,5.8
		c-0.5,1.2-1,2.3-1.5,3.5c0.1,0,0.1,0.1,0.2,0.1c1,0,2.1,0,3.1,0c0.5,0,0.7-0.1,0.9-0.6c0.4-1.4,0.4-1.4,1.9-1.4
		c0.6,0,1.2-0.2,1.7,0.1c0.3,0.2,0.4,1,0.6,1.5c0,0,0,0.1,0,0.1c0.1,0.1,0.3,0.3,0.5,0.3C98.5,67.2,99.7,67.2,101,67.2z M58.6,67.2
		c0-0.1,0-0.2,0-0.2c-1.4-3.1-2.7-6.2-4.1-9.4c-0.1-0.2-0.4-0.3-0.6-0.3c-1,0-2,0-3,0c-0.4,0-0.5,0.1-0.6,0.5
		c-1.3,3-2.6,5.9-3.9,8.9c-0.1,0.2-0.1,0.3-0.2,0.5c0.1,0,0.1,0,0.2,0c1.1,0,2.2,0,3.3,0c0.4,0,0.6-0.1,0.7-0.5
		c0.4-1.5,0.5-1.5,2-1.5c1.5,0,1.5,0,2,1.5c0,0,0,0.1,0,0.1c0.1,0.1,0.3,0.3,0.5,0.3C56,67.2,57.2,67.2,58.6,67.2z M49.8,70.3
		c-3.2,0-6.3,0-9.4,0c0,3.3,0,6.5,0,9.7c3.1,0,6.2,0,9.4,0c0-0.7,0-1.3,0-2c-1.8,0-3.6,0-5.4,0c0-0.7,0-1.4,0-2.1c1.7,0,3.4,0,5.1,0
		c0-0.7,0-1.3,0-1.9c-1.7,0-3.4,0-5,0c0-0.6,0-1.2,0-1.8c1.9,0,3.6,0,5.4,0C49.8,71.6,49.8,71,49.8,70.3z M88,77.3
		c0,0.6,0,1.2,0,1.8c0,0.3,0.1,0.5,0.5,0.6c1.5,0.4,3.1,0.6,4.6,0.5c1.5-0.1,2.8-0.6,3.9-1.7c1.1-1.1,0.9-2.7-0.4-3.4
		c-0.8-0.4-1.7-0.7-2.5-1c-0.6-0.2-1.2-0.4-1.7-0.6c-0.2-0.1-0.4-0.4-0.4-0.6c0-0.2,0.3-0.5,0.5-0.5c0.6-0.1,1.2-0.3,1.7-0.2
		c0.8,0.1,1.6,0.5,2.5,0.7c0-0.6,0-1.2,0-1.8c0-0.4-0.1-0.6-0.5-0.6c-1.4-0.3-2.8-0.4-4.2-0.3c-1.1,0.1-2.2,0.4-3.1,1.1
		c-1.3,1.1-1.2,2.6,0.3,3.4c0.6,0.3,1.3,0.6,2,0.9c0.6,0.2,1.3,0.4,1.9,0.7c0.3,0.1,0.6,0.5,0.6,0.7c0,0.3-0.3,0.7-0.6,0.8
		c-0.6,0.2-1.2,0.4-1.8,0.3C90.2,78,89.1,77.6,88,77.3z M20.8,59.3c1.8,0,3.5,0,5.3,0c0-0.7,0-1.4,0-2c-3.1,0-6.1,0-9.2,0
		c0,3.3,0,6.5,0,9.8c1.3,0,2.5,0,3.9,0c0-1.3,0-2.6,0-3.9c1.7,0,3.2,0,4.8,0c0-0.7,0-1.3,0-2c-1.7,0-3.2,0-4.8,0
		C20.8,60.6,20.8,60,20.8,59.3z M81.3,59.8c0-0.8,0-1.5,0-2.2c-2-0.6-3.9-0.6-5.9,0.3c-3.2,1.4-3.9,5.5-1.4,7.8
		c1.5,1.5,5.2,2.1,7.1,1.3c0.1,0,0.2-0.2,0.2-0.3c0-0.7,0-1.3,0-2c-2.4,0.7-3.6,0.5-4.4-0.7c-0.7-1-0.6-2.8,0.1-3.7
		C77.9,59.2,79.3,59,81.3,59.8z M102.3,57.3c0,3.3,0,6.5,0,9.8c3,0,6.1,0,9.1,0c0-0.7,0-1.4,0-2.1c-1.8,0-3.4,0-5.2,0
		c0-2.6,0-5.2,0-7.8C104.9,57.3,103.7,57.3,102.3,57.3z M27.8,57.3c0,3.3,0,6.5,0,9.8c1.3,0,2.6,0,3.9,0c0-3.3,0-6.5,0-9.8
		C30.4,57.3,29.1,57.3,27.8,57.3z M87.3,57.3c-1.3,0-2.6,0-3.9,0c0,3.3,0,6.5,0,9.8c1.3,0,2.6,0,3.9,0
		C87.3,63.9,87.3,60.6,87.3,57.3z"/>
	<path fill="#F2F1F1" d="M67.8,35.1c-2.9,0-5.7,0-8.6,0c0,3.8,0,7.6,0,11.5c-3.6,0-7.2,0-10.7,0c0-9.2,0-18.3,0-27.5
		c3.6,0,7.1,0,10.7,0c0,3.5,0,7,0,10.5c2.9,0,5.7,0,8.6,0c0-3.5,0-7,0-10.5c3.7,0,7.3,0,10.9,0c0,9.2,0,18.3,0,27.5
		c-3.6,0-7.2,0-10.9,0C67.8,42.7,67.8,38.9,67.8,35.1z"/>
	<path fill="#F2F1F1" d="M46.6,46.6c-0.6,0-1.1,0-1.6,0c-3.3,0-6.5,0-9.8,0c-0.6,0-0.8-0.2-1.1-0.7c-1.4-3.1-3-6.1-4.4-9.2
		c-0.2-0.3-0.3-0.7-0.5-1c-1,0.9-1.9,1.8-2.8,2.7c-0.1,0.1-0.2,0.5-0.2,0.7c0,2.2,0,4.4,0,6.7c0,0.2,0,0.5,0,0.7
		c-3.6,0-7.2,0-10.8,0c0-9.2,0-18.3,0-27.5c3.6,0,7.2,0,10.7,0c0,3.2,0,6.5,0,9.8c0.2-0.1,0.3-0.2,0.4-0.3c2.5-3,5-6.1,7.6-9.1
		c0.2-0.2,0.5-0.4,0.8-0.4c3.4,0,6.7,0,10.1,0c0.1,0,0.1,0,0.3,0c-0.3,0.3-0.6,0.7-0.9,1c-2.6,2.7-5.2,5.3-7.8,8
		c-0.3,0.3-0.2,0.6,0,0.9c3.3,5.6,6.5,11.3,9.8,17C46.3,46.1,46.4,46.3,46.6,46.6z"/>
	<path fill="#F2F1F1" d="M96.4,35.6c0,3.7,0,7.3,0,10.9c-3.6,0-7.2,0-10.8,0c0-9.2,0-18.3,0-27.5c8.6,0,17.2,0,25.9,0
		c0,1.8,0,3.6,0,5.5c-5,0-10,0-15,0c0,1.9,0,3.8,0,5.7c4.6,0,9.2,0,13.9,0c0,1.8,0,3.6,0,5.4C105.7,35.6,101.1,35.6,96.4,35.6z"/>
	<path fill="#030100" d="M37.7,67.1c-1.2,0-2.4,0-3.7,0c0-3.3,0-6.5,0-9.8c1.2,0,2.5,0,3.7,0c0.2,0,0.4,0.2,0.5,0.4
		c1,1.6,1.9,3.2,2.8,4.9c0,0.1,0.1,0.1,0.2,0.2c0-1.9,0-3.6,0-5.4c1.2,0,2.4,0,3.7,0c0,3.2,0,6.5,0,9.8c-1.2,0-2.5,0-3.7,0
		c-0.1,0-0.3-0.2-0.4-0.4c-1-1.6-1.9-3.2-2.8-4.9c-0.1-0.1-0.1-0.1-0.2-0.3C37.7,63.5,37.7,65.3,37.7,67.1z"/>
	<path fill="#040100" d="M70.6,67.2c-1.2,0-2.5,0-3.7,0c-0.2,0-0.4-0.2-0.5-0.4c-1-1.7-2-3.3-3-5.1c0,1.9,0,3.6,0,5.5
		c-1.2,0-2.4,0-3.7,0c0-3.2,0-6.5,0-9.8c0.8,0,1.6,0.1,2.4,0c1.2-0.2,1.8,0.3,2.3,1.3c0.7,1.3,1.5,2.6,2.2,3.9
		c0.1,0.1,0.1,0.1,0.2,0.3c0-1.9,0-3.6,0-5.4c1.2,0,2.4,0,3.6,0C70.6,60.6,70.6,63.8,70.6,67.2z"/>
	<path fill="#030100" d="M27.3,70.3c1.3,0,2.5,0,3.8,0c0,1.2,0,2.4,0,3.7c1,0,2,0,3,0c0-1.2,0-2.4,0-3.7c1.3,0,2.6,0,3.9,0
		c0,3.2,0,6.5,0,9.7c-1.3,0-2.5,0-3.9,0c0-1.3,0-2.6,0-4c-1,0-2,0-3,0c0,1.3,0,2.6,0,3.9c-1.3,0-2.6,0-3.9,0
		C27.3,76.8,27.3,73.6,27.3,70.3z"/>
	<path fill="#030100" d="M62.4,80.1c-1.4,0-2.6,0-3.9,0c-0.1,0-0.4-0.2-0.4-0.3c-0.2-0.7-0.3-1.5-0.5-2.2c-0.3-1.1-0.8-1.5-2.1-1.3
		c0,0.6,0,1.3,0,1.9c0,0.6,0,1.3,0,2c-1.3,0-2.5,0-3.8,0c0-3.2,0-6.5,0-9.7c0.1,0,0.1-0.1,0.1-0.1c2.3,0,4.7,0,7,0.1
		c0.8,0,1.7,0.3,2.3,0.7c1.2,0.7,1.3,2.2,0.1,3.1c-0.7,0.5-1.5,0.8-2.3,1.1c0-0.1,0,0,0,0c1.4,0.3,2.2,1.1,2.5,2.5
		C61.8,78.5,62.1,79.2,62.4,80.1z M55.5,74.4c0.7-0.1,1.4-0.2,2-0.4c0.3-0.1,0.6-0.6,0.6-0.8c0-0.3-0.4-0.7-0.7-0.8
		c-0.6-0.1-1.2-0.1-1.9-0.2C55.5,72.9,55.5,73.5,55.5,74.4z"/>
	<path fill="#030100" d="M68.7,70.1c1.7,0.1,3.2,0.3,4.5,1.2c2.5,1.7,2.7,5.6,0.3,7.5c-2.4,1.9-6.4,1.9-8.7,0.2
		c-2.7-2-2.4-6.4,0.6-8C66.5,70.4,67.7,70.1,68.7,70.1z M66.9,75.2c0.1,0.5,0.2,1,0.3,1.5c0.3,0.9,1,1.4,1.9,1.4
		c0.9,0,1.6-0.5,2-1.4c0.4-1,0.4-2,0.1-3c-0.3-0.9-1-1.4-1.9-1.4c-1,0-1.7,0.5-2.1,1.4C67,74.1,67,74.7,66.9,75.2z"/>
	<path fill="#050201" d="M77,80c0-3.2,0-6.5,0-9.7c3.1,0,6.3,0,9.4,0c0,0.6,0,1.2,0,1.9c-1.8,0-3.6,0-5.4,0c0,0.6,0,1.2,0,1.8
		c1.7,0,3.4,0,5.1,0c0,0.7,0,1.3,0,1.9c-1.7,0-3.4,0-5.1,0c0,0.7,0,1.4,0,2.1c1.8,0,3.6,0,5.4,0c0,0.7,0,1.3,0,2
		C83.3,80,80.2,80,77,80z"/>
	<path fill="#040100" d="M101,67.2c-1.3,0-2.5,0-3.8,0c-0.2,0-0.3-0.2-0.5-0.3c0,0,0,0,0-0.1c-0.2-0.5-0.2-1.2-0.6-1.5
		c-0.4-0.3-1.1-0.1-1.7-0.1c-1.4,0-1.5,0-1.9,1.4c-0.1,0.5-0.4,0.6-0.9,0.6c-1,0-2.1,0-3.1,0c0,0-0.1,0-0.2-0.1
		c0.5-1.2,1-2.4,1.5-3.5c0.8-1.9,1.7-3.9,2.5-5.8c0.1-0.4,0.3-0.5,0.8-0.5c1,0,2,0,3,0c0.2,0,0.5,0.1,0.5,0.3
		c1.4,3.1,2.8,6.3,4.2,9.4C101,67,101,67.1,101,67.2z M94.8,60.3c0,0-0.1,0-0.1,0c-0.3,1-0.6,2-1,3c0.7,0,1.3,0,2,0
		C95.4,62.3,95.1,61.3,94.8,60.3z"/>
	<path fill="#040101" d="M58.6,67.2c-1.3,0-2.5,0-3.8,0c-0.2,0-0.3-0.2-0.5-0.3c0,0,0-0.1,0-0.1c-0.4-1.5-0.4-1.5-2-1.5
		c-1.6,0-1.6,0-2,1.5c-0.1,0.4-0.3,0.5-0.7,0.5c-1.1,0-2.2,0-3.3,0c0,0-0.1,0-0.2,0c0.1-0.2,0.1-0.3,0.2-0.5c1.3-3,2.6-5.9,3.9-8.9
		c0.1-0.3,0.3-0.5,0.6-0.5c1,0,2,0,3,0c0.2,0,0.5,0.2,0.6,0.3c1.4,3.1,2.8,6.2,4.1,9.4C58.6,67,58.6,67.1,58.6,67.2z M52.3,60.1
		c-0.4,1.2-0.7,2.2-1,3.2c0.7,0,1.3,0,2,0C52.9,62.3,52.6,61.3,52.3,60.1z"/>
	<path fill="#030100" d="M49.8,70.3c0,0.7,0,1.3,0,1.9c-1.8,0-3.6,0-5.4,0c0,0.6,0,1.2,0,1.8c1.7,0,3.3,0,5,0c0,0.6,0,1.2,0,1.9
		c-1.7,0-3.4,0-5.1,0c0,0.8,0,1.4,0,2.1c1.8,0,3.6,0,5.4,0c0,0.7,0,1.3,0,2c-3.1,0-6.2,0-9.4,0c0-3.2,0-6.5,0-9.7
		C43.6,70.3,46.6,70.3,49.8,70.3z"/>
	<path fill="#030100" d="M88,77.3c1.1,0.3,2.1,0.7,3.2,0.8c0.6,0.1,1.2-0.1,1.8-0.3c0.3-0.1,0.6-0.5,0.6-0.8c0-0.2-0.3-0.6-0.6-0.7
		c-0.6-0.3-1.2-0.5-1.9-0.7c-0.7-0.3-1.4-0.5-2-0.9c-1.5-0.8-1.6-2.4-0.3-3.4c0.9-0.8,2-1,3.1-1.1c1.4-0.1,2.8,0,4.2,0.3
		c0.3,0.1,0.5,0.2,0.5,0.6c0,0.6,0,1.2,0,1.8c-0.8-0.3-1.7-0.6-2.5-0.7c-0.6-0.1-1.2,0.1-1.7,0.2c-0.2,0.1-0.5,0.3-0.5,0.5
		c0,0.2,0.2,0.5,0.4,0.6c0.6,0.3,1.1,0.4,1.7,0.6c0.8,0.3,1.7,0.6,2.5,1c1.3,0.7,1.5,2.3,0.4,3.4c-1.1,1-2.4,1.5-3.9,1.7
		c-1.6,0.2-3.1-0.1-4.6-0.5c-0.3-0.1-0.5-0.2-0.5-0.6C88,78.5,88,77.9,88,77.3z"/>
	<path fill="#040100" d="M20.8,59.3c0,0.7,0,1.3,0,1.9c1.6,0,3.2,0,4.8,0c0,0.7,0,1.3,0,2c-1.6,0-3.2,0-4.8,0c0,1.3,0,2.6,0,3.9
		c-1.3,0-2.6,0-3.9,0c0-3.3,0-6.5,0-9.8c3,0,6.1,0,9.2,0c0,0.6,0,1.2,0,2C24.4,59.3,22.7,59.3,20.8,59.3z"/>
	<path fill="#040201" d="M81.3,59.8c-2-0.8-3.4-0.6-4.2,0.5c-0.8,0.9-0.8,2.8-0.1,3.7c0.8,1.2,2,1.4,4.4,0.7c0,0.7,0,1.3,0,2
		c0,0.1-0.1,0.2-0.2,0.3c-1.9,0.9-5.6,0.2-7.1-1.3c-2.5-2.4-1.7-6.5,1.4-7.8c1.9-0.8,3.9-0.8,5.9-0.3C81.3,58.3,81.3,59,81.3,59.8z"
		/>
	<path fill="#050201" d="M102.3,57.3c1.3,0,2.5,0,3.8,0c0,2.6,0,5.1,0,7.8c1.8,0,3.5,0,5.2,0c0,0.7,0,1.4,0,2.1c-3,0-6,0-9.1,0
		C102.3,63.9,102.3,60.6,102.3,57.3z"/>
	<path fill="#060201" d="M27.8,57.3c1.3,0,2.5,0,3.9,0c0,3.2,0,6.5,0,9.8c-1.2,0-2.5,0-3.9,0C27.8,63.9,27.8,60.6,27.8,57.3z"/>
	<path fill="#020100" d="M87.3,57.3c0,3.3,0,6.5,0,9.8c-1.3,0-2.5,0-3.9,0c0-3.2,0-6.5,0-9.8C84.6,57.3,85.9,57.3,87.3,57.3z"/>
	<path fill="#FE8C00" d="M55.5,74.4c0-0.8,0-1.4,0-2.2c0.7,0.1,1.3,0.1,1.9,0.2c0.3,0.1,0.7,0.5,0.7,0.8c0,0.3-0.3,0.7-0.6,0.8
		C57,74.2,56.3,74.2,55.5,74.4z"/>
	<path fill="#FE8C00" d="M66.9,75.2c0.1-0.5,0.1-1,0.3-1.5c0.3-0.9,1.1-1.4,2.1-1.4c0.9,0,1.6,0.5,1.9,1.4c0.3,1,0.3,2.1-0.1,3
		c-0.3,0.9-1.1,1.4-2,1.4c-0.9,0-1.6-0.5-1.9-1.4C67,76.2,67,75.7,66.9,75.2z"/>
	<path fill="#FE8C00" d="M94.8,60.3c0.3,1,0.6,2,0.9,3c-0.7,0-1.3,0-2,0c0.3-1,0.6-2,1-3C94.7,60.3,94.7,60.3,94.8,60.3z"/>
	<path fill="#FE8C00" d="M52.3,60.1c0.3,1.2,0.7,2.2,1,3.2c-0.7,0-1.3,0-2,0C51.6,62.3,51.9,61.3,52.3,60.1z"/>
</g>
</svg>
