<?xml version="1.0" encoding="utf-8"?>
<!-- Generator: Adobe Illustrator 18.0.0, SVG Export Plug-In . SVG Version: 6.00 Build 0)  -->
<!DOCTYPE svg PUBLIC "-//W3C//DTD SVG 1.1//EN" "http://www.w3.org/Graphics/SVG/1.1/DTD/svg11.dtd">
<svg version="1.1" id="Layer_1" xmlns="http://www.w3.org/2000/svg" xmlns:xlink="http://www.w3.org/1999/xlink" x="0px" y="0px"
	 viewBox="0 0 776 131" enable-background="new 0 0 776 131" xml:space="preserve">
<g>
	<path fill="#FEC106" d="M61.6,0.5v0.2c0,0,0,0,0.1,0C61.6,0.6,61.6,0.5,61.6,0.5z"/>
	<path fill="#FEC106" d="M36.7,48.3c-18.2,0-33-5.9-33-13.2v13.2c0,7.3,14.8,13.2,33,13.2c18.2,0,33-5.9,33-13.2V35.1
		C69.7,42.4,54.9,48.3,36.7,48.3z"/>
	<path fill="#FEC106" d="M36.7,65.4c-18.2,0-33-5.9-33-13.2v13.2c0,7.3,14.8,13.2,33,13.2c18.2,0,33-5.9,33-13.2V52.3
		C69.7,59.5,54.9,65.4,36.7,65.4z"/>
	<path fill="#FEC106" d="M36.7,82.6c-18.2,0-33-5.9-33-13.2v13.2c0,7.3,14.8,13.2,33,13.2c18.2,0,33-5.9,33-13.2V69.4
		C69.7,76.7,54.9,82.6,36.7,82.6z"/>
	<path fill="#FEC106" d="M36.7,99.8c-18.2,0-33-5.9-33-13.2v13.2c0,7.3,14.8,13.2,33,13.2c18.2,0,33-5.9,33-13.2V86.6
		C69.7,93.9,54.9,99.8,36.7,99.8z"/>
	<path fill="#FEC106" d="M36.7,117c-18.2,0-33-5.9-33-13.2V117c0,7.3,14.8,13.2,33,13.2c18.2,0,33-5.9,33-13.2v-13.2
		C69.7,111.1,54.9,117,36.7,117z"/>
	<path fill="#FEC106" d="M36.7,4.8c-18.2,0-33,5.9-33,13.2v13.2c0,7.3,14.8,13.2,33,13.2c18.2,0,33-5.9,33-13.2V18
		C69.7,10.7,54.9,4.8,36.7,4.8z M36.7,27.9C18.6,27.9,7,22,7,18c0-4,11.6-9.9,29.7-9.9c18.1,0,29.7,5.9,29.7,9.9
		C66.4,22,54.8,27.9,36.7,27.9z"/>
	<path fill="#FEC106" d="M39.2,16.5c-3.8-0.6-5.4-1-5.4-1.7c0-0.5,0.9-1.1,3.9-1.1c3.2,0,5.3,0.4,6.5,0.6l1.3-2.2
		c-1.5-0.3-3.5-0.6-6.5-0.6V10h-4.4v1.8c-4.8,0.4-7.6,1.7-7.6,3.4c0,1.9,3.3,2.8,8.1,3.5c3.3,0.5,4.8,0.9,4.8,1.7
		c0,0.8-1.7,1.2-4.3,1.2c-2.9,0-5.5-0.4-7.4-0.8l-1.3,2.2c1.7,0.4,4.6,0.8,7.6,0.8v1.8h4.4v-1.9c5.2-0.4,8-1.8,8-3.5
		C46.7,18.4,44.5,17.3,39.2,16.5z"/>
	<path fill="#FEC106" d="M73.6,69.4v13.2c0,7.3,14.8,13.2,33,13.2c9.6,0,18.2-1.6,24.2-4.2V78.4c-6,2.6-14.6,4.2-24.2,4.2
		C88.4,82.6,73.6,76.7,73.6,69.4z"/>
	<path fill="#FEC106" d="M73.6,86.6v13.2c0,7.3,14.8,13.2,33,13.2c9.6,0,18.2-1.6,24.2-4.2V95.6c-6,2.6-14.6,4.2-24.2,4.2
		C88.4,99.8,73.6,93.9,73.6,86.6z"/>
	<path fill="#FEC106" d="M73.6,103.8V117c0,7.3,14.8,13.2,33,13.2c9.6,0,18.2-1.6,24.2-4.2v-13.2c-6,2.6-14.6,4.2-24.2,4.2
		C88.4,117,73.6,111.1,73.6,103.8z"/>
	<path fill="#FEC106" d="M139.6,52.4c0-7.3-14.8-13.2-33-13.2c-18.2,0-33,5.9-33,13.2v13.2c0,7.3,14.8,13.2,33,13.2
		c9.6,0,18.2-1.6,24.2-4.2V57.7c-5.1,2.5-13.5,4.5-24.2,4.5c-18.1,0-29.7-5.9-29.7-9.9c0-4,11.6-9.9,29.7-9.9
		c18.1,0,29.7,5.9,29.7,9.9c0,1.1-0.8,2.2-2.3,3.4h5.6V52.4z"/>
	<path fill="#FEC106" d="M108.6,59.9V58c5.2-0.4,8-1.8,8-3.5c0-1.7-2.1-2.8-7.5-3.6c-3.8-0.6-5.4-1-5.4-1.6c0-0.5,0.9-1.1,3.9-1.1
		c3.2,0,5.3,0.4,6.5,0.6l1.3-2.2c-1.5-0.3-3.5-0.6-6.5-0.6v-1.7h-4.4v1.8c-4.8,0.4-7.6,1.7-7.6,3.4c0,1.9,3.3,2.8,8.1,3.5
		c3.3,0.5,4.8,0.9,4.8,1.7c0,0.8-1.7,1.2-4.3,1.2c-2.9,0-5.6-0.4-7.4-0.8l-1.3,2.2c1.7,0.4,4.6,0.8,7.6,0.8v1.8H108.6z"/>
</g>
<g>
	<path fill="#FEC106" d="M174.8,126.2l-27.8-31.7l-7.5,8.2v23.5h-5.8V58.9h5.8v36.8l32.5-36.8h7.4L150.8,91l31.4,35.2H174.8z"/>
	<path fill="#FEC106" d="M241.4,126.2v-32h-42.7v32H193V58.9h5.8v30.1h42.7V58.9h5.9v67.3H241.4z"/>
	<path fill="#FEC106" d="M262.2,126.2V58.9h47.6v12.6h-33.3v14.2h32.6v12.6h-32.6v27.9H262.2z"/>
	<path fill="#FEC106" d="M319.8,126.2V58.9h14.3v67.3H319.8z"/>
	<path fill="#FEC106" d="M393.9,126.2l-32.1-43.9v43.9h-14.3V58.9h14.7l31.2,42.3V58.9h14.3v67.3H393.9z"/>
	<path fill="#FEC106" d="M467.5,126.2l-4.1-11.4h-28.9l-4.2,11.4h-16.3l26-67.3h18l25.9,67.3H467.5z M448.9,73.2l-10.5,29h21
		L448.9,73.2z"/>
	<path fill="#FEC106" d="M536.5,126.2l-32.1-43.9v43.9h-14.3V58.9h14.7l31.2,42.3V58.9h14.3v67.3H536.5z"/>
	<path fill="#FEC106" d="M560.4,92.6c0-20.7,15.6-34.8,35.8-34.8c14.8,0,23.4,8.1,28.2,16.4l-12.3,6.1c-2.8-5.4-8.9-9.8-15.8-9.8
		c-12.2,0-21.1,9.4-21.1,22.1c0,12.7,8.9,22.1,21.1,22.1c7,0,13-4.2,15.8-9.8l12.3,6c-4.8,8.4-13.3,16.6-28.2,16.6
		C576.1,127.4,560.4,113.3,560.4,92.6z"/>
	<path fill="#FEC106" d="M633,126.2V58.9h14.3v67.3H633z"/>
	<path fill="#FEC106" d="M707,126.2l-4.1-11.4H674l-4.2,11.4h-16.3l26-67.3h18l25.9,67.3H707z M688.5,73.2l-10.5,29h21L688.5,73.2z"
		/>
	<path fill="#FEC106" d="M729.7,126.2V58.9H744v54.7h28.5v12.6H729.7z"/>
</g>
</svg>
