<?xml version="1.0" encoding="iso-8859-1"?>
<!-- Generator: Adobe Illustrator 19.0.0, SVG Export Plug-In . SVG Version: 6.00 Build 0)  -->
<svg version="1.1" id="Capa_1" xmlns="http://www.w3.org/2000/svg" xmlns:xlink="http://www.w3.org/1999/xlink" x="0px" y="0px"
	 viewBox="0 0 512 512" style="enable-background:new 0 0 512 512;" xml:space="preserve">
<path style="fill:#F44336;" d="M509.728,303.804l-48-80.032c-2.912-4.832-8.096-7.776-13.728-7.776h-80c-8.832,0-16,7.168-16,16v176
	h144c8.832,0,16-7.168,16-16v-80C511.232,309.212,510.496,306.588,509.728,303.804z"/>
<g>
	<polygon style="fill:#FAFAFA;" points="384,247.996 438.944,247.996 477.344,311.996 384,311.996 	"/>
	<circle style="fill:#FAFAFA;" cx="432" cy="391.996" r="32"/>
</g>
<path style="fill:#455A64;" d="M432,439.996c-26.464,0-48-21.536-48-48s21.536-48,48-48s48,21.536,48,48
	S458.464,439.996,432,439.996z M432,375.996c-8.8,0-16,7.2-16,16s7.2,16,16,16s16-7.2,16-16S440.8,375.996,432,375.996z"/>
<path style="fill:#F44336;" d="M352,407.996H16c-8.832,0-16-7.168-16-16v-48h352V407.996z"/>
<circle style="fill:#FAFAFA;" cx="112" cy="391.996" r="32"/>
<path style="fill:#455A64;" d="M112,439.996c-26.464,0-48-21.536-48-48s21.536-48,48-48s48,21.536,48,48
	S138.464,439.996,112,439.996z M112,375.996c-8.832,0-16,7.2-16,16s7.168,16,16,16s16-7.2,16-16S120.832,375.996,112,375.996z"/>
<g>
	<path style="fill:#F44336;" d="M160,183.996c-4.192,0-8.288-1.664-11.328-4.672c-3.84-3.872-5.472-9.44-4.288-14.784
		c4.16-18.848,15.424-64.224,29.696-78.496c18.72-18.72,49.184-18.72,67.872,0c18.72,18.72,18.72,49.152,0,67.872
		c-14.272,14.272-59.648,25.536-78.496,29.696C162.304,183.868,161.152,183.996,160,183.996z M208,103.996
		c-4.096,0-8.192,1.536-11.328,4.672c-3.424,3.616-9.184,18.784-14.496,37.152c18.368-5.312,33.536-11.104,37.152-14.528
		c6.24-6.208,6.24-16.384,0-22.624C216.192,105.564,212.096,103.996,208,103.996z"/>
	<path style="fill:#F44336;" d="M160,183.996c-1.152,0-2.304-0.128-3.456-0.384c-18.848-4.16-64.224-15.424-78.496-29.696
		c-18.72-18.72-18.72-49.152,0-67.872s49.152-18.72,67.872,0c14.272,14.272,25.504,59.616,29.696,78.496
		c1.184,5.344-0.448,10.912-4.32,14.752C168.288,182.332,164.192,183.996,160,183.996z M112,103.996
		c-4.096,0-8.192,1.536-11.328,4.672c-6.24,6.24-6.24,16.384,0,22.624c3.616,3.424,18.784,9.216,37.152,14.528
		c-5.312-18.368-11.104-33.536-14.528-37.152C120.192,105.564,116.096,103.996,112,103.996z"/>
</g>
<path style="fill:#FFD54F;" d="M288,183.996H32v144c0,8.832,7.168,16,16,16h224c8.832,0,16-7.168,16-16V183.996z"/>
<path style="fill:#FFC107;" d="M304,151.996H16c-8.832,0-16,7.168-16,16v32c0,8.832,7.168,16,16,16h288c8.832,0,16-7.168,16-16v-32
	C320,159.164,312.832,151.996,304,151.996z"/>
<rect x="144" y="151.996" style="fill:#F44336;" width="32" height="192"/>
<g>
</g>
<g>
</g>
<g>
</g>
<g>
</g>
<g>
</g>
<g>
</g>
<g>
</g>
<g>
</g>
<g>
</g>
<g>
</g>
<g>
</g>
<g>
</g>
<g>
</g>
<g>
</g>
<g>
</g>
</svg>
